<?xml version="1.0" encoding="UTF-8" standalone="no"?>
<svg
   xmlns:dc="http://purl.org/dc/elements/1.1/"
   xmlns:cc="http://creativecommons.org/ns#"
   xmlns:rdf="http://www.w3.org/1999/02/22-rdf-syntax-ns#"
   xmlns:svg="http://www.w3.org/2000/svg"
   xmlns="http://www.w3.org/2000/svg"
   xmlns:sodipodi="http://sodipodi.sourceforge.net/DTD/sodipodi-0.dtd"
   xmlns:inkscape="http://www.inkscape.org/namespaces/inkscape"
   fill-opacity="1"
   color-rendering="auto"
   color-interpolation="auto"
   text-rendering="auto"
   stroke="black"
   stroke-linecap="square"
   stroke-miterlimit="10"
   shape-rendering="auto"
   stroke-opacity="1"
   fill="black"
   stroke-dasharray="none"
   font-weight="normal"
   stroke-width="1"
   font-family="'Dialog'"
   font-style="normal"
   stroke-linejoin="miter"
   font-size="12"
   stroke-dashoffset="0"
   image-rendering="auto"
   id="svg2"
   version="1.1"
   inkscape:version="0.91 r13725"
   sodipodi:docname="gear.svg">
  <g
     id="g5"
     transform="translate(-130.50847,2.9661017)">
    <g
       id="g7">
      <path
         d="m 180.50872,-2.9661021 c 2.02576,0 4.02851,0.1094315 6.00827,0.3282849 l 1.79562,12.2784085 c 3.0847,0.5690437 6.10035,1.5101727 9.04696,2.8233887 l 8.70172,-8.6671043 c 3.49909,1.9697851 6.72194,4.3554288 9.66854,7.1569123 l -5.80113,10.242945 c 2.16393,2.188648 4.00556,4.596178 5.52489,7.222609 l 11.39506,-2.035472 c 1.7035,3.676953 2.92357,7.529007 3.66022,11.556141 l -10.22098,4.530519 c 0.18413,1.532069 0.27619,3.042242 0.27619,4.53052 0,1.488305 -0.0921,2.998497 -0.27619,4.530566 l 10.22098,4.596169 c -0.73665,3.983371 -1.95672,7.813538 -3.66022,11.490492 l -11.39506,-2.035472 c -1.51933,2.626392 -3.36096,5.055818 -5.52489,7.288258 l 5.80113,10.177296 c -2.9466,2.801483 -6.16945,5.209003 -9.66854,7.222561 l -8.70172,-8.667104 c -2.94661,1.269414 -5.96226,2.210544 -9.04696,2.823389 l -1.79562,12.212711 c -1.97976,0.262655 -3.98251,0.393982 -6.00827,0.393982 -2.02583,0 -4.0286,-0.131327 -6.00833,-0.393982 l -1.79561,-12.212711 c -3.08473,-0.612845 -6.1004,-1.553975 -9.04701,-2.823389 l -8.70167,8.667104 c -3.49909,-2.013558 -6.72193,-4.421078 -9.66854,-7.222561 l 5.80113,-10.177296 c -2.16392,-2.188677 -4.00555,-4.618093 -5.52489,-7.288258 l -11.39506,2.035472 c -1.70353,-3.676954 -2.92362,-7.507121 -3.66027,-11.490492 l 10.22109,-4.596169 c -0.1842,-1.532069 -0.2763,-3.042261 -0.2763,-4.530566 0,-1.488278 0.0921,-2.998451 0.2763,-4.53052 l -10.22109,-4.530519 c 0.73665,-4.027134 1.95674,-7.879188 3.66027,-11.556141 l 11.39506,2.035472 c 1.51934,-2.626431 3.36097,-5.055847 5.52489,-7.288258 l -5.80113,-10.177296 c 2.94661,-2.8014835 6.16945,-5.1871272 9.66854,-7.1569123 l 8.70167,8.6014073 c 2.94661,-1.269415 5.96228,-2.188648 9.04701,-2.7576917 l 1.79561,-12.2784085 c 1.97973,-0.2188534 3.9825,-0.3282849 6.00833,-0.3282849 z m 0,21.0768111 c -8.37942,0 -15.53876,2.834322 -21.478,8.502976 -5.93924,5.668625 -8.90886,12.475357 -8.90886,20.420194 0,7.944866 2.96962,14.740664 8.90886,20.387402 5.93924,5.646739 13.09858,8.470118 21.478,8.470118 8.37939,0 15.53871,-2.823379 21.47795,-8.470118 5.93928,-5.646738 8.90891,-12.442536 8.90891,-20.387402 0,-7.944837 -2.96963,-14.751569 -8.90891,-20.420194 -5.93924,-5.668654 -13.09856,-8.502976 -21.47795,-8.502976 z"
         id="path9"
         style="stroke:none;stroke-width:0.1;stroke-miterlimit:10;stroke-dasharray:none"
         sodipodi:nodetypes="sccccccccccsccccccccccsccccccccccsccccccccccssssssssss" />
    </g>
  </g>
</svg>
