<?xml version="1.0" encoding="UTF-8" standalone="no"?>
<svg
   xmlns:dc="http://purl.org/dc/elements/1.1/"
   xmlns:cc="http://creativecommons.org/ns#"
   xmlns:rdf="http://www.w3.org/1999/02/22-rdf-syntax-ns#"
   xmlns:svg="http://www.w3.org/2000/svg"
   xmlns="http://www.w3.org/2000/svg"
   xmlns:sodipodi="http://sodipodi.sourceforge.net/DTD/sodipodi-0.dtd"
   xmlns:inkscape="http://www.inkscape.org/namespaces/inkscape"
   fill-opacity="1"
   color-rendering="auto"
   color-interpolation="auto"
   text-rendering="auto"
   stroke="black"
   stroke-linecap="square"
   stroke-miterlimit="10"
   shape-rendering="auto"
   stroke-opacity="1"
   fill="black"
   stroke-dasharray="none"
   font-weight="normal"
   stroke-width="1"
   font-family="'Dialog'"
   font-style="normal"
   stroke-linejoin="miter"
   font-size="12"
   stroke-dashoffset="0"
   image-rendering="auto"
   id="svg2"
   version="1.1"
   inkscape:version="0.91 r13725"
   sodipodi:docname="Assault.svg">
  <defs
     id="genericDefs" />
  <g
     id="g5"
     transform="matrix(0.39616214,0,0,0.39594144,-9.4707313,-41.091278)">
    <g
       id="g7">
      <path
         d="m 42.8906,230.3438 q 0,44.4374 31.4297,75.7265 31.4297,31.2891 75.8672,31.2891 44.5781,0 75.8672,-31.2891 31.2891,-31.2891 31.2891,-75.7265 0,-44.5782 -31.2891,-76.0782 -31.2891,-31.5 -75.8672,-31.5 -44.4375,0 -75.8672,31.5 -31.4297,31.5 -31.4297,76.0782 z m -18.9844,0 q 0,-52.4532 36.9844,-89.5079 36.9844,-37.0547 89.2969,-37.0547 52.4531,0 89.2969,37.0547 36.8437,37.0547 36.8437,89.5079 0,52.3124 -36.8437,89.1562 -36.8438,36.8438 -89.2969,36.8438 -52.3125,0 -89.2969,-36.8438 -36.9844,-36.8438 -36.9844,-89.1562 z m 134.4376,-22.7813 q 0,-19.5469 9.8437,-33.3984 9.8437,-13.8516 23.625,-13.8516 13.7813,0 23.625,13.8516 9.8437,13.8515 9.8437,33.3984 l -18.9843,0 q 0,-11.6719 -4.2891,-20.0391 -4.289,-8.3672 -10.1953,-8.3672 -5.9063,0 -10.1953,8.3672 -4.2891,8.3672 -4.2891,20.0391 l -18.9843,0 z m -83.25,0 q 0,-19.5469 9.8437,-33.3984 9.8437,-13.8516 23.625,-13.8516 13.7813,0 23.625,13.8516 9.8437,13.8515 9.8437,33.3984 l -18.9843,0 q 0,-11.6719 -4.2891,-20.0391 -4.289,-8.3672 -10.1953,-8.3672 -5.9063,0 -10.1953,8.3672 -4.2891,8.3672 -4.2891,20.0391 l -18.9843,0 z m -12.375,24.1875 174.7968,0 q 0,36.2812 -25.5234,61.7344 -25.5234,25.4531 -61.8047,25.4531 -36.2813,0 -61.875,-25.4531 Q 62.7188,268.0312 62.7188,231.75 Z m 97.0312,67.6406 q 12.375,-1.5468 23.0625,-7.4531 l 0,-41.2031 -23.0625,0 0,48.6562 z m -19.125,0 0,-48.6562 -23.0625,0 0,41.2031 q 10.6875,5.9063 23.0625,7.4531 z m 61.3125,-23.0625 Q 212.0625,264.7969 216,250.7344 l -14.0625,0 0,25.5937 z m -103.5,0.2813 0,-25.875 -14.2031,0 q 3.9375,14.3437 14.2031,25.875 z"
         id="path9"
         inkscape:connector-curvature="0"
         style="stroke:none" />
    </g>
  </g>
</svg>
